<mxfile host="app.diagrams.net" modified="2020-12-23T05:06:42.449Z" agent="5.0 (Windows NT 10.0; WOW64) AppleWebKit/537.36 (KHTML, like Gecko) Chrome/87.0.4280.88 Safari/537.36" etag="cWIeQ0T65el9FP0FUTYq" version="14.1.1" type="github">
  <diagram name="Page-1" id="74e2e168-ea6b-b213-b513-2b3c1d86103e">
    <mxGraphModel dx="1234" dy="514" grid="1" gridSize="10" guides="1" tooltips="1" connect="1" arrows="1" fold="1" page="1" pageScale="1" pageWidth="1100" pageHeight="850" background="#ffffff" math="0" shadow="0">
      <root>
        <mxCell id="0" />
        <mxCell id="1" parent="0" />
        <mxCell id="77e6c97f196da883-1" value="实时质检逻辑设计图" style="swimlane;html=1;childLayout=stackLayout;startSize=20;rounded=0;shadow=0;labelBackgroundColor=none;strokeWidth=1;fontFamily=Verdana;fontSize=8;align=center;swimlaneLine=1;strokeColor=none;" parent="1" vertex="1">
          <mxGeometry x="60" width="1710" height="835" as="geometry">
            <mxRectangle x="60" width="140" height="20" as="alternateBounds" />
          </mxGeometry>
        </mxCell>
        <mxCell id="77e6c97f196da883-2" value="呼叫中心" style="swimlane;html=1;startSize=20;swimlaneFillColor=none;dashed=1;dashPattern=1 4;" parent="77e6c97f196da883-1" vertex="1">
          <mxGeometry y="20" width="160" height="815" as="geometry" />
        </mxCell>
        <mxCell id="77e6c97f196da883-8" value="&lt;font style=&quot;vertical-align: inherit&quot;&gt;&lt;font style=&quot;vertical-align: inherit&quot;&gt;呼叫中心&lt;/font&gt;&lt;/font&gt;" style="rounded=1;whiteSpace=wrap;html=1;shadow=0;labelBackgroundColor=none;strokeWidth=1;fontFamily=Verdana;fontSize=8;align=center;" parent="77e6c97f196da883-2" vertex="1">
          <mxGeometry x="20" y="65" width="100" height="60" as="geometry" />
        </mxCell>
        <mxCell id="77e6c97f196da883-28" style="edgeStyle=orthogonalEdgeStyle;rounded=1;html=1;labelBackgroundColor=none;startArrow=none;startFill=0;startSize=5;endArrow=classicThin;endFill=1;endSize=5;jettySize=auto;orthogonalLoop=1;strokeWidth=1;fontFamily=Verdana;fontSize=8" parent="77e6c97f196da883-1" source="77e6c97f196da883-9" target="77e6c97f196da883-12" edge="1">
          <mxGeometry relative="1" as="geometry" />
        </mxCell>
        <object label="" placeholders="1" id="77e6c97f196da883-30">
          <mxCell style="edgeStyle=orthogonalEdgeStyle;rounded=1;html=1;labelBackgroundColor=none;startArrow=none;startFill=0;startSize=5;endArrow=classicThin;endFill=1;endSize=5;jettySize=auto;orthogonalLoop=1;strokeWidth=1;fontFamily=Verdana;fontSize=8" parent="77e6c97f196da883-1" source="77e6c97f196da883-13" target="77e6c97f196da883-9" edge="1">
            <mxGeometry relative="1" as="geometry" />
          </mxCell>
        </object>
        <mxCell id="eDigmIHYkgGR732zNb33-26" value="&lt;font style=&quot;vertical-align: inherit&quot;&gt;&lt;font style=&quot;vertical-align: inherit&quot;&gt;创建失败重试&lt;/font&gt;&lt;/font&gt;" style="edgeLabel;html=1;align=center;verticalAlign=middle;resizable=0;points=[];fontSize=8;fontFamily=Verdana;" vertex="1" connectable="0" parent="77e6c97f196da883-30">
          <mxGeometry x="0.025" y="4" relative="1" as="geometry">
            <mxPoint as="offset" />
          </mxGeometry>
        </mxCell>
        <mxCell id="77e6c97f196da883-33" style="edgeStyle=orthogonalEdgeStyle;rounded=1;html=1;labelBackgroundColor=none;startArrow=none;startFill=0;startSize=5;endArrow=classicThin;endFill=1;endSize=5;jettySize=auto;orthogonalLoop=1;strokeWidth=1;fontFamily=Verdana;fontSize=8;" parent="77e6c97f196da883-1" target="eDigmIHYkgGR732zNb33-33" edge="1">
          <mxGeometry relative="1" as="geometry">
            <mxPoint x="740" y="330" as="sourcePoint" />
            <mxPoint x="1000" y="350" as="targetPoint" />
            <Array as="points">
              <mxPoint x="910" y="330" />
            </Array>
          </mxGeometry>
        </mxCell>
        <mxCell id="eDigmIHYkgGR732zNb33-24" value="&lt;font style=&quot;vertical-align: inherit&quot;&gt;&lt;font style=&quot;vertical-align: inherit&quot;&gt;记录日志&lt;br&gt;&lt;/font&gt;&lt;/font&gt;" style="edgeLabel;html=1;align=center;verticalAlign=middle;resizable=0;points=[];fontSize=8;fontFamily=Verdana;" vertex="1" connectable="0" parent="77e6c97f196da883-33">
          <mxGeometry x="-0.2211" y="1" relative="1" as="geometry">
            <mxPoint as="offset" />
          </mxGeometry>
        </mxCell>
        <mxCell id="77e6c97f196da883-3" value="前端" style="swimlane;html=1;startSize=20;dashed=1;dashPattern=1 4;" parent="77e6c97f196da883-1" vertex="1">
          <mxGeometry x="160" y="20" width="430" height="815" as="geometry" />
        </mxCell>
        <mxCell id="77e6c97f196da883-9" value="创建会话" style="rounded=1;whiteSpace=wrap;html=1;shadow=0;labelBackgroundColor=none;strokeWidth=1;fontFamily=Verdana;fontSize=8;align=center;" parent="77e6c97f196da883-3" vertex="1">
          <mxGeometry x="130" y="170" width="120" height="60" as="geometry" />
        </mxCell>
        <mxCell id="eDigmIHYkgGR732zNb33-14" value="&lt;font style=&quot;vertical-align: inherit&quot;&gt;&lt;font style=&quot;vertical-align: inherit&quot;&gt;违规监听&lt;/font&gt;&lt;/font&gt;" style="rounded=1;whiteSpace=wrap;html=1;fontFamily=Verdana;fontSize=8;" vertex="1" parent="77e6c97f196da883-3">
          <mxGeometry x="10" y="625" width="120" height="60" as="geometry" />
        </mxCell>
        <mxCell id="eDigmIHYkgGR732zNb33-15" value="&lt;font style=&quot;vertical-align: inherit&quot;&gt;&lt;font style=&quot;vertical-align: inherit&quot;&gt;通话介入&lt;/font&gt;&lt;/font&gt;" style="rounded=1;whiteSpace=wrap;html=1;fontFamily=Verdana;fontSize=8;" vertex="1" parent="77e6c97f196da883-3">
          <mxGeometry x="150" y="625" width="120" height="60" as="geometry" />
        </mxCell>
        <mxCell id="eDigmIHYkgGR732zNb33-20" style="edgeStyle=orthogonalEdgeStyle;orthogonalLoop=1;jettySize=auto;html=1;exitX=0.558;exitY=1.017;exitDx=0;exitDy=0;labelBackgroundColor=none;startFill=0;startSize=5;endArrow=classicThin;endFill=1;endSize=5;strokeColor=#000000;strokeWidth=1;fontFamily=Verdana;fontSize=8;exitPerimeter=0;" edge="1" parent="77e6c97f196da883-3" source="eDigmIHYkgGR732zNb33-16" target="eDigmIHYkgGR732zNb33-15">
          <mxGeometry relative="1" as="geometry">
            <mxPoint x="190" y="624" as="targetPoint" />
            <Array as="points">
              <mxPoint x="222" y="515" />
              <mxPoint x="215" y="515" />
            </Array>
          </mxGeometry>
        </mxCell>
        <mxCell id="eDigmIHYkgGR732zNb33-21" value="&lt;font style=&quot;vertical-align: inherit&quot;&gt;&lt;font style=&quot;vertical-align: inherit&quot;&gt;实时监听&lt;br&gt;&lt;/font&gt;&lt;/font&gt;" style="edgeLabel;html=1;align=center;verticalAlign=middle;resizable=0;points=[];fontSize=8;fontFamily=Verdana;" vertex="1" connectable="0" parent="eDigmIHYkgGR732zNb33-20">
          <mxGeometry x="-0.1543" y="1" relative="1" as="geometry">
            <mxPoint as="offset" />
          </mxGeometry>
        </mxCell>
        <mxCell id="eDigmIHYkgGR732zNb33-22" style="edgeStyle=orthogonalEdgeStyle;orthogonalLoop=1;jettySize=auto;html=1;exitX=0.5;exitY=1;exitDx=0;exitDy=0;entryX=0.5;entryY=0;entryDx=0;entryDy=0;labelBackgroundColor=none;startFill=0;startSize=5;endArrow=classicThin;endFill=1;endSize=5;strokeColor=#000000;strokeWidth=1;fontFamily=Verdana;fontSize=8;exitPerimeter=0;" edge="1" parent="77e6c97f196da883-3" source="eDigmIHYkgGR732zNb33-16" target="eDigmIHYkgGR732zNb33-14">
          <mxGeometry relative="1" as="geometry" />
        </mxCell>
        <mxCell id="eDigmIHYkgGR732zNb33-23" style="edgeStyle=orthogonalEdgeStyle;orthogonalLoop=1;jettySize=auto;html=1;exitX=0.5;exitY=1;exitDx=0;exitDy=0;entryX=0.5;entryY=0;entryDx=0;entryDy=0;labelBackgroundColor=none;startFill=0;startSize=5;endArrow=classicThin;endFill=1;endSize=5;strokeColor=#000000;strokeWidth=1;fontFamily=Verdana;fontSize=8;" edge="1" parent="77e6c97f196da883-3" source="eDigmIHYkgGR732zNb33-16" target="eDigmIHYkgGR732zNb33-19">
          <mxGeometry relative="1" as="geometry" />
        </mxCell>
        <mxCell id="eDigmIHYkgGR732zNb33-16" value="&lt;font style=&quot;vertical-align: inherit&quot;&gt;&lt;font style=&quot;vertical-align: inherit&quot;&gt;质检SDK&lt;/font&gt;&lt;/font&gt;" style="rounded=1;whiteSpace=wrap;html=1;fontFamily=Verdana;fontSize=8;" vertex="1" parent="77e6c97f196da883-3">
          <mxGeometry x="155" y="455" width="120" height="60" as="geometry" />
        </mxCell>
        <mxCell id="eDigmIHYkgGR732zNb33-19" value="&lt;font style=&quot;vertical-align: inherit&quot;&gt;&lt;font style=&quot;vertical-align: inherit&quot;&gt;会话结束&lt;/font&gt;&lt;/font&gt;" style="rounded=1;whiteSpace=wrap;html=1;fontFamily=Verdana;fontSize=8;" vertex="1" parent="77e6c97f196da883-3">
          <mxGeometry x="290" y="625" width="120" height="60" as="geometry" />
        </mxCell>
        <mxCell id="eDigmIHYkgGR732zNb33-44" value="&lt;span&gt;呼出&lt;/span&gt;" style="ellipse;whiteSpace=wrap;html=1;fontFamily=Verdana;fontSize=8;" vertex="1" parent="77e6c97f196da883-3">
          <mxGeometry x="130" y="65" width="120" height="65" as="geometry" />
        </mxCell>
        <mxCell id="77e6c97f196da883-4" value="质检" style="swimlane;html=1;startSize=20;dashed=1;dashPattern=1 4;" parent="77e6c97f196da883-1" vertex="1">
          <mxGeometry x="590" y="20" width="210" height="815" as="geometry" />
        </mxCell>
        <mxCell id="77e6c97f196da883-12" value="&lt;font style=&quot;vertical-align: inherit&quot;&gt;&lt;font style=&quot;vertical-align: inherit&quot;&gt;质检服务&lt;/font&gt;&lt;/font&gt;" style="rounded=1;whiteSpace=wrap;html=1;shadow=0;labelBackgroundColor=none;strokeWidth=1;fontFamily=Verdana;fontSize=8;align=center;" parent="77e6c97f196da883-4" vertex="1">
          <mxGeometry x="59" y="170" width="100" height="60" as="geometry" />
        </mxCell>
        <mxCell id="eDigmIHYkgGR732zNb33-11" style="edgeStyle=orthogonalEdgeStyle;orthogonalLoop=1;jettySize=auto;html=1;exitX=0.5;exitY=1;exitDx=0;exitDy=0;labelBackgroundColor=none;startFill=0;startSize=5;endArrow=classicThin;endFill=1;endSize=5;strokeColor=#000000;strokeWidth=1;fontFamily=Verdana;fontSize=8;" edge="1" parent="77e6c97f196da883-4" source="77e6c97f196da883-13" target="eDigmIHYkgGR732zNb33-10">
          <mxGeometry relative="1" as="geometry" />
        </mxCell>
        <mxCell id="eDigmIHYkgGR732zNb33-25" value="&lt;font style=&quot;vertical-align: inherit&quot;&gt;&lt;font style=&quot;vertical-align: inherit&quot;&gt;成功&lt;/font&gt;&lt;/font&gt;" style="edgeLabel;html=1;align=center;verticalAlign=middle;resizable=0;points=[];fontSize=8;fontFamily=Verdana;" vertex="1" connectable="0" parent="eDigmIHYkgGR732zNb33-11">
          <mxGeometry x="-0.2615" y="-2" relative="1" as="geometry">
            <mxPoint as="offset" />
          </mxGeometry>
        </mxCell>
        <mxCell id="77e6c97f196da883-13" value="&lt;font style=&quot;vertical-align: inherit&quot;&gt;&lt;font style=&quot;vertical-align: inherit&quot;&gt;是否创建成功&lt;/font&gt;&lt;/font&gt;" style="rhombus;whiteSpace=wrap;html=1;rounded=0;shadow=0;labelBackgroundColor=none;strokeWidth=1;fontFamily=Verdana;fontSize=8;align=center;" parent="77e6c97f196da883-4" vertex="1">
          <mxGeometry x="69" y="280" width="80" height="60" as="geometry" />
        </mxCell>
        <mxCell id="77e6c97f196da883-29" style="edgeStyle=orthogonalEdgeStyle;rounded=1;html=1;labelBackgroundColor=none;startArrow=none;startFill=0;startSize=5;endArrow=classicThin;endFill=1;endSize=5;jettySize=auto;orthogonalLoop=1;strokeWidth=1;fontFamily=Verdana;fontSize=8;exitX=0.5;exitY=1;exitDx=0;exitDy=0;" parent="77e6c97f196da883-4" source="77e6c97f196da883-12" target="77e6c97f196da883-13" edge="1">
          <mxGeometry relative="1" as="geometry">
            <mxPoint x="80" y="215" as="sourcePoint" />
          </mxGeometry>
        </mxCell>
        <mxCell id="eDigmIHYkgGR732zNb33-10" value="&lt;font style=&quot;vertical-align: inherit&quot;&gt;&lt;font style=&quot;vertical-align: inherit&quot;&gt;&lt;font style=&quot;vertical-align: inherit&quot;&gt;&lt;font style=&quot;vertical-align: inherit&quot;&gt;实时语音流交互&lt;/font&gt;&lt;/font&gt;&lt;/font&gt;&lt;/font&gt;" style="rounded=1;whiteSpace=wrap;html=1;fontFamily=Verdana;fontSize=8;" vertex="1" parent="77e6c97f196da883-4">
          <mxGeometry x="51.5" y="405" width="115" height="60" as="geometry" />
        </mxCell>
        <mxCell id="77e6c97f196da883-5" value="后端" style="swimlane;html=1;startSize=20;dashed=1;dashPattern=1 4;" parent="77e6c97f196da883-1" vertex="1">
          <mxGeometry x="800" y="20" width="250" height="815" as="geometry" />
        </mxCell>
        <mxCell id="eDigmIHYkgGR732zNb33-32" value="会话结束" style="rounded=1;whiteSpace=wrap;html=1;fontFamily=Verdana;fontSize=8;" vertex="1" parent="77e6c97f196da883-5">
          <mxGeometry x="50" y="625" width="120" height="60" as="geometry" />
        </mxCell>
        <mxCell id="eDigmIHYkgGR732zNb33-33" value="日志记录" style="rounded=1;whiteSpace=wrap;html=1;fontFamily=Verdana;fontSize=8;" vertex="1" parent="77e6c97f196da883-5">
          <mxGeometry x="50" y="465" width="120" height="60" as="geometry" />
        </mxCell>
        <mxCell id="77e6c97f196da883-6" value="中间件" style="swimlane;html=1;startSize=20;dashed=1;dashPattern=1 4;" parent="77e6c97f196da883-1" vertex="1">
          <mxGeometry x="1050" y="20" width="300" height="815" as="geometry" />
        </mxCell>
        <mxCell id="eDigmIHYkgGR732zNb33-41" value="消息队列" style="rounded=1;whiteSpace=wrap;html=1;fontFamily=Verdana;fontSize=8;" vertex="1" parent="77e6c97f196da883-6">
          <mxGeometry x="41" y="465" width="120" height="60" as="geometry" />
        </mxCell>
        <mxCell id="eDigmIHYkgGR732zNb33-56" style="edgeStyle=orthogonalEdgeStyle;orthogonalLoop=1;jettySize=auto;html=1;exitX=0.5;exitY=0;exitDx=0;exitDy=0;entryX=0.5;entryY=1;entryDx=0;entryDy=0;labelBackgroundColor=none;startFill=0;startSize=5;endArrow=classicThin;endFill=1;endSize=5;strokeColor=#000000;strokeWidth=1;fontFamily=Verdana;fontSize=8;" edge="1" parent="77e6c97f196da883-6" source="eDigmIHYkgGR732zNb33-43" target="eDigmIHYkgGR732zNb33-41">
          <mxGeometry relative="1" as="geometry" />
        </mxCell>
        <mxCell id="eDigmIHYkgGR732zNb33-43" value="定时任务" style="rounded=1;whiteSpace=wrap;html=1;fontFamily=Verdana;fontSize=8;" vertex="1" parent="77e6c97f196da883-6">
          <mxGeometry x="41" y="705" width="120" height="60" as="geometry" />
        </mxCell>
        <mxCell id="eDigmIHYkgGR732zNb33-48" value="是否执行成功" style="rhombus;whiteSpace=wrap;html=1;fontFamily=Verdana;fontSize=8;" vertex="1" parent="77e6c97f196da883-6">
          <mxGeometry x="200" y="467.5" width="80" height="55" as="geometry" />
        </mxCell>
        <mxCell id="eDigmIHYkgGR732zNb33-49" style="edgeStyle=orthogonalEdgeStyle;orthogonalLoop=1;jettySize=auto;html=1;exitX=1;exitY=0.5;exitDx=0;exitDy=0;entryX=0;entryY=0.5;entryDx=0;entryDy=0;labelBackgroundColor=none;startFill=0;startSize=5;endArrow=classicThin;endFill=1;endSize=5;strokeColor=#000000;strokeWidth=1;fontFamily=Verdana;fontSize=8;" edge="1" parent="77e6c97f196da883-6" source="eDigmIHYkgGR732zNb33-41" target="eDigmIHYkgGR732zNb33-48">
          <mxGeometry relative="1" as="geometry" />
        </mxCell>
        <mxCell id="eDigmIHYkgGR732zNb33-53" style="edgeStyle=orthogonalEdgeStyle;orthogonalLoop=1;jettySize=auto;html=1;exitX=0.5;exitY=1;exitDx=0;exitDy=0;entryX=1;entryY=0.5;entryDx=0;entryDy=0;labelBackgroundColor=none;startFill=0;startSize=5;endArrow=classicThin;endFill=1;endSize=5;strokeColor=#000000;strokeWidth=1;fontFamily=Verdana;fontSize=8;" edge="1" parent="77e6c97f196da883-6" source="eDigmIHYkgGR732zNb33-48" target="eDigmIHYkgGR732zNb33-43">
          <mxGeometry relative="1" as="geometry" />
        </mxCell>
        <mxCell id="eDigmIHYkgGR732zNb33-55" value="否" style="edgeLabel;html=1;align=center;verticalAlign=middle;resizable=0;points=[];fontSize=8;fontFamily=Verdana;" vertex="1" connectable="0" parent="eDigmIHYkgGR732zNb33-53">
          <mxGeometry x="-0.3572" relative="1" as="geometry">
            <mxPoint as="offset" />
          </mxGeometry>
        </mxCell>
        <mxCell id="eDigmIHYkgGR732zNb33-8" style="edgeStyle=orthogonalEdgeStyle;orthogonalLoop=1;jettySize=auto;html=1;exitX=0.5;exitY=1;exitDx=0;exitDy=0;entryX=0;entryY=0.5;entryDx=0;entryDy=0;labelBackgroundColor=none;startFill=0;startSize=5;endArrow=classicThin;endFill=1;endSize=5;strokeWidth=1;fontFamily=Verdana;fontSize=8;" edge="1" parent="77e6c97f196da883-1" source="77e6c97f196da883-8" target="77e6c97f196da883-9">
          <mxGeometry relative="1" as="geometry" />
        </mxCell>
        <mxCell id="eDigmIHYkgGR732zNb33-17" style="edgeStyle=orthogonalEdgeStyle;orthogonalLoop=1;jettySize=auto;html=1;exitX=0.5;exitY=1;exitDx=0;exitDy=0;entryX=0;entryY=0.5;entryDx=0;entryDy=0;labelBackgroundColor=none;startFill=0;startSize=5;endArrow=classicThin;endFill=1;endSize=5;strokeColor=#000000;strokeWidth=1;fontFamily=Verdana;fontSize=8;" edge="1" parent="77e6c97f196da883-1" source="77e6c97f196da883-8" target="eDigmIHYkgGR732zNb33-10">
          <mxGeometry relative="1" as="geometry" />
        </mxCell>
        <mxCell id="eDigmIHYkgGR732zNb33-18" style="edgeStyle=orthogonalEdgeStyle;orthogonalLoop=1;jettySize=auto;html=1;exitX=0.5;exitY=1;exitDx=0;exitDy=0;entryX=1;entryY=0.5;entryDx=0;entryDy=0;labelBackgroundColor=none;startFill=0;startSize=5;endArrow=classicThin;endFill=1;endSize=5;strokeColor=#000000;strokeWidth=1;fontFamily=Verdana;fontSize=8;" edge="1" parent="77e6c97f196da883-1" source="eDigmIHYkgGR732zNb33-10" target="eDigmIHYkgGR732zNb33-16">
          <mxGeometry relative="1" as="geometry" />
        </mxCell>
        <mxCell id="eDigmIHYkgGR732zNb33-34" style="edgeStyle=orthogonalEdgeStyle;orthogonalLoop=1;jettySize=auto;html=1;exitX=0.5;exitY=1;exitDx=0;exitDy=0;entryX=0;entryY=0.5;entryDx=0;entryDy=0;labelBackgroundColor=none;startFill=0;startSize=5;endArrow=classicThin;endFill=1;endSize=5;strokeColor=#000000;strokeWidth=1;fontFamily=Verdana;fontSize=8;" edge="1" parent="77e6c97f196da883-1" source="eDigmIHYkgGR732zNb33-14" target="eDigmIHYkgGR732zNb33-33">
          <mxGeometry relative="1" as="geometry">
            <Array as="points">
              <mxPoint x="230" y="775" />
              <mxPoint x="770" y="775" />
              <mxPoint x="770" y="515" />
            </Array>
          </mxGeometry>
        </mxCell>
        <mxCell id="eDigmIHYkgGR732zNb33-36" style="edgeStyle=orthogonalEdgeStyle;orthogonalLoop=1;jettySize=auto;html=1;exitX=0.5;exitY=1;exitDx=0;exitDy=0;entryX=0;entryY=0.5;entryDx=0;entryDy=0;labelBackgroundColor=none;startFill=0;startSize=5;endArrow=classicThin;endFill=1;endSize=5;strokeColor=#000000;strokeWidth=1;fontFamily=Verdana;fontSize=8;" edge="1" parent="77e6c97f196da883-1" source="eDigmIHYkgGR732zNb33-15" target="eDigmIHYkgGR732zNb33-33">
          <mxGeometry relative="1" as="geometry">
            <Array as="points">
              <mxPoint x="370" y="775" />
              <mxPoint x="770" y="775" />
              <mxPoint x="770" y="515" />
            </Array>
          </mxGeometry>
        </mxCell>
        <mxCell id="eDigmIHYkgGR732zNb33-37" style="edgeStyle=orthogonalEdgeStyle;orthogonalLoop=1;jettySize=auto;html=1;exitX=0.5;exitY=1;exitDx=0;exitDy=0;entryX=0;entryY=0.5;entryDx=0;entryDy=0;labelBackgroundColor=none;startFill=0;startSize=5;endArrow=classicThin;endFill=1;endSize=5;strokeColor=#000000;strokeWidth=1;fontFamily=Verdana;fontSize=8;" edge="1" parent="77e6c97f196da883-1" source="eDigmIHYkgGR732zNb33-19" target="eDigmIHYkgGR732zNb33-33">
          <mxGeometry relative="1" as="geometry">
            <Array as="points">
              <mxPoint x="510" y="775" />
              <mxPoint x="770" y="775" />
              <mxPoint x="770" y="515" />
            </Array>
          </mxGeometry>
        </mxCell>
        <mxCell id="eDigmIHYkgGR732zNb33-38" value="记录日志" style="edgeLabel;html=1;align=center;verticalAlign=middle;resizable=0;points=[];fontSize=8;fontFamily=Verdana;" vertex="1" connectable="0" parent="eDigmIHYkgGR732zNb33-37">
          <mxGeometry x="-0.4027" relative="1" as="geometry">
            <mxPoint as="offset" />
          </mxGeometry>
        </mxCell>
        <mxCell id="eDigmIHYkgGR732zNb33-45" style="edgeStyle=orthogonalEdgeStyle;orthogonalLoop=1;jettySize=auto;html=1;exitX=1;exitY=0.5;exitDx=0;exitDy=0;labelBackgroundColor=none;startFill=0;startSize=5;endArrow=classicThin;endFill=1;endSize=5;strokeColor=#000000;strokeWidth=1;fontFamily=Verdana;fontSize=8;" edge="1" parent="77e6c97f196da883-1" source="eDigmIHYkgGR732zNb33-33" target="eDigmIHYkgGR732zNb33-41">
          <mxGeometry relative="1" as="geometry" />
        </mxCell>
        <mxCell id="eDigmIHYkgGR732zNb33-58" style="edgeStyle=orthogonalEdgeStyle;orthogonalLoop=1;jettySize=auto;html=1;exitX=0;exitY=0.5;exitDx=0;exitDy=0;labelBackgroundColor=none;startFill=0;startSize=5;endArrow=classicThin;endFill=1;endSize=5;strokeColor=#000000;strokeWidth=1;fontFamily=Verdana;fontSize=8;" edge="1" parent="77e6c97f196da883-1" source="eDigmIHYkgGR732zNb33-44" target="77e6c97f196da883-8">
          <mxGeometry relative="1" as="geometry">
            <Array as="points">
              <mxPoint x="290" y="115" />
            </Array>
          </mxGeometry>
        </mxCell>
        <mxCell id="eDigmIHYkgGR732zNb33-59" style="edgeStyle=orthogonalEdgeStyle;orthogonalLoop=1;jettySize=auto;html=1;exitX=0.5;exitY=1;exitDx=0;exitDy=0;entryX=0.5;entryY=1;entryDx=0;entryDy=0;labelBackgroundColor=none;startFill=0;startSize=5;endArrow=classicThin;endFill=1;endSize=5;strokeColor=#000000;strokeWidth=1;fontFamily=Verdana;fontSize=8;" edge="1" parent="77e6c97f196da883-1" source="eDigmIHYkgGR732zNb33-19" target="eDigmIHYkgGR732zNb33-32">
          <mxGeometry relative="1" as="geometry">
            <Array as="points">
              <mxPoint x="510" y="805" />
              <mxPoint x="910" y="805" />
            </Array>
          </mxGeometry>
        </mxCell>
        <mxCell id="eDigmIHYkgGR732zNb33-60" value="保存会话结果" style="edgeLabel;html=1;align=center;verticalAlign=middle;resizable=0;points=[];fontSize=8;fontFamily=Verdana;" vertex="1" connectable="0" parent="eDigmIHYkgGR732zNb33-59">
          <mxGeometry x="0.0733" relative="1" as="geometry">
            <mxPoint as="offset" />
          </mxGeometry>
        </mxCell>
        <mxCell id="77e6c97f196da883-7" value="数据库" style="swimlane;html=1;startSize=20;dashed=1;dashPattern=1 4;" parent="77e6c97f196da883-1" vertex="1">
          <mxGeometry x="1350" y="20" width="320" height="815" as="geometry" />
        </mxCell>
        <mxCell id="eDigmIHYkgGR732zNb33-42" value="数据库" style="strokeWidth=2;html=1;shape=mxgraph.flowchart.database;whiteSpace=wrap;fontFamily=Verdana;fontSize=8;" vertex="1" parent="77e6c97f196da883-7">
          <mxGeometry x="120" y="460" width="80" height="72.5" as="geometry" />
        </mxCell>
        <mxCell id="eDigmIHYkgGR732zNb33-57" style="edgeStyle=orthogonalEdgeStyle;orthogonalLoop=1;jettySize=auto;html=1;exitX=1;exitY=0.5;exitDx=0;exitDy=0;labelBackgroundColor=none;startFill=0;startSize=5;endArrow=classicThin;endFill=1;endSize=5;strokeColor=#000000;strokeWidth=1;fontFamily=Verdana;fontSize=8;" edge="1" parent="77e6c97f196da883-7">
          <mxGeometry relative="1" as="geometry">
            <mxPoint x="-20" y="496" as="sourcePoint" />
            <mxPoint x="120" y="494" as="targetPoint" />
            <Array as="points">
              <mxPoint x="-20" y="494" />
            </Array>
          </mxGeometry>
        </mxCell>
      </root>
    </mxGraphModel>
  </diagram>
</mxfile>
